<svg xmlns="http://www.w3.org/2000/svg" width="500" height="725" viewBox="0 0 500 725"><rect width="100%" height="100%" fill="#DDDDDD"/><path fill="#999999" d="m212.39 282.515.75 3.56q1.36-1.36 2.88-2.53 1.52-1.17 3.21-1.98 1.7-.81 3.63-1.28 1.94-.46 4.23-.46 3.69 0 6.55 1.26 2.86 1.25 4.78 3.52 1.91 2.26 2.9 5.41.99 3.14.99 6.93v28.73h-10.87v-28.73q0-4.14-1.89-6.4-1.89-2.27-5.76-2.27-2.82 0-5.28 1.28-2.47 1.27-4.67 3.47v32.65h-10.87v-45.14h6.65q2.11 0 2.77 1.98Zm60.19-2.69q5.02 0 9.13 1.63 4.12 1.63 7.04 4.62 2.93 2.99 4.51 7.3 1.59 4.32 1.59 9.64 0 5.37-1.59 9.68-1.58 4.31-4.51 7.35-2.92 3.03-7.04 4.66-4.11 1.63-9.13 1.63-5.06 0-9.19-1.63-4.14-1.63-7.07-4.66-2.92-3.04-4.53-7.35-1.6-4.31-1.6-9.68 0-5.32 1.6-9.64 1.61-4.31 4.53-7.3 2.93-2.99 7.07-4.62 4.13-1.63 9.19-1.63Zm0 38.15q5.63 0 8.34-3.78 2.71-3.79 2.71-11.09 0-7.31-2.71-11.13-2.71-3.83-8.34-3.83-5.72 0-8.47 3.85-2.75 3.85-2.75 11.11t2.75 11.06q2.75 3.81 8.47 3.81Zm-157.5 81.66h8.85q3.25 0 5.67-.81t4.03-2.33q1.61-1.52 2.4-3.7.79-2.18.79-4.86 0-2.55-.79-4.62-.79-2.07-2.38-3.52-1.58-1.45-4-2.22-2.42-.77-5.72-.77h-8.85v22.83Zm-11.83-31.98h20.68q6.38 0 11.04 1.49 4.67 1.5 7.7 4.18 3.04 2.69 4.51 6.43 1.48 3.74 1.48 8.18 0 4.62-1.54 8.47-1.54 3.85-4.62 6.62t-7.73 4.31q-4.64 1.54-10.84 1.54h-8.85v22.4h-11.83v-63.62Zm72.73 17.77q5.02 0 9.13 1.63 4.11 1.63 7.04 4.62 2.93 2.99 4.51 7.3 1.58 4.32 1.58 9.64 0 5.37-1.58 9.68t-4.51 7.35q-2.93 3.03-7.04 4.66-4.11 1.63-9.13 1.63-5.06 0-9.2-1.63-4.13-1.63-7.06-4.66-2.92-3.04-4.53-7.35-1.61-4.31-1.61-9.68 0-5.32 1.61-9.64 1.61-4.31 4.53-7.3 2.93-2.99 7.06-4.62 4.14-1.63 9.2-1.63Zm0 38.15q5.63 0 8.34-3.78 2.7-3.79 2.7-11.09 0-7.31-2.7-11.13-2.71-3.83-8.34-3.83-5.72 0-8.47 3.85-2.75 3.85-2.75 11.11t2.75 11.06q2.75 3.81 8.47 3.81Zm60.59-32.56-2.47 3.92q-.44.7-.92.99-.48.28-1.23.28-.79 0-1.7-.44-.9-.44-2.09-.99-1.18-.55-2.7-.99-1.52-.44-3.59-.44-3.21 0-5.04 1.37-1.82 1.36-1.82 3.56 0 1.45.94 2.44.95.99 2.51 1.74 1.56.75 3.54 1.34 1.98.6 4.03 1.3 2.05.7 4.03 1.61 1.98.9 3.54 2.28 1.56 1.39 2.51 3.33.94 1.93.94 4.66 0 3.26-1.16 6.01-1.17 2.75-3.46 4.75t-5.65 3.12q-3.37 1.12-7.77 1.12-2.33 0-4.55-.41-2.22-.42-4.27-1.17-2.05-.75-3.78-1.76-1.74-1.01-3.06-2.2l2.51-4.14q.48-.74 1.14-1.14.66-.4 1.67-.4 1.01 0 1.92.58.9.57 2.09 1.23 1.18.66 2.79 1.23t4.07.57q1.94 0 3.32-.46 1.39-.46 2.29-1.21.9-.75 1.32-1.74.42-.99.42-2.04 0-1.59-.95-2.6-.94-1.01-2.51-1.76-1.56-.75-3.56-1.34-2-.6-4.09-1.3-2.09-.7-4.09-1.65-2.01-.95-3.57-2.4t-2.51-3.56q-.94-2.11-.94-5.11 0-2.77 1.1-5.28 1.1-2.5 3.23-4.37 2.14-1.87 5.33-3 3.19-1.12 7.37-1.12 4.66 0 8.49 1.54t6.38 4.05Zm23.71 40.96q-5.89 0-9.04-3.32-3.14-3.32-3.14-9.17v-25.21h-4.62q-.88 0-1.5-.58-.62-.57-.62-1.71v-4.31l7.26-1.19 2.29-12.32q.22-.88.84-1.37.61-.48 1.58-.48h5.63v14.21h12.06v7.75h-12.06v24.46q0 2.11 1.04 3.3 1.03 1.19 2.84 1.19 1.01 0 1.69-.24.68-.25 1.19-.51.5-.26.9-.51.4-.24.79-.24.49 0 .79.24.31.25.66.73l3.26 5.28q-2.38 1.98-5.46 2.99-3.08 1.01-6.38 1.01Zm26.27-28.46h20.51q0-2.12-.6-3.99-.59-1.87-1.78-3.27-1.19-1.41-3.01-2.23-1.83-.81-4.25-.81-4.71 0-7.41 2.68-2.71 2.69-3.46 7.62Zm27.72 6.55h-27.94q.27 3.48 1.23 6.01.97 2.53 2.56 4.18 1.58 1.65 3.76 2.46 2.18.82 4.82.82t4.55-.62q1.91-.62 3.34-1.36 1.43-.75 2.51-1.37 1.08-.61 2.09-.61 1.37 0 2.03 1.01l3.12 3.96q-1.8 2.11-4.05 3.54-2.24 1.43-4.68 2.29-2.45.86-4.98 1.21-2.53.35-4.9.35-4.71 0-8.76-1.56t-7.04-4.62q-2.99-3.06-4.71-7.57-1.71-4.51-1.71-10.45 0-4.62 1.49-8.69 1.5-4.07 4.29-7.08 2.8-3.02 6.82-4.78 4.03-1.76 9.09-1.76 4.27 0 7.88 1.37 3.6 1.36 6.2 3.98t4.07 6.42q1.47 3.81 1.47 8.69 0 2.47-.52 3.32-.53.86-2.03.86Zm20.29-21.21.66 5.11q2.11-4.05 5.01-6.36 2.91-2.31 6.87-2.31 3.12 0 5.01 1.36l-.7 8.14q-.22.8-.64 1.13-.42.33-1.12.33-.66 0-1.96-.22-1.3-.22-2.53-.22-1.8 0-3.21.52-1.41.53-2.53 1.52-1.12.99-1.98 2.4-.86 1.41-1.61 3.21v27.81h-10.87v-45.14h6.38q1.68 0 2.34.59.66.59.88 2.13Zm22.52 36.44q0-1.37.51-2.6t1.39-2.11q.88-.88 2.11-1.41 1.23-.53 2.64-.53 1.41 0 2.62.53 1.21.53 2.11 1.41.9.88 1.43 2.11.53 1.23.53 2.6 0 1.4-.53 2.61t-1.43 2.09q-.9.88-2.11 1.39-1.21.51-2.62.51-1.41 0-2.64-.51-1.23-.51-2.11-1.39-.88-.88-1.39-2.09-.51-1.21-.51-2.61Zm0-31.38q0-1.36.51-2.59.51-1.23 1.39-2.11.88-.88 2.11-1.41 1.23-.53 2.64-.53 1.41 0 2.62.53 1.21.53 2.11 1.41.9.88 1.43 2.11.53 1.23.53 2.59 0 1.41-.53 2.62-.53 1.21-1.43 2.09-.9.88-2.11 1.39-1.21.5-2.62.5-1.41 0-2.64-.5-1.23-.51-2.11-1.39-.88-.88-1.39-2.09-.51-1.21-.51-2.62Zm30.63 9.77q0 9.07 2.2 17.82 2.2 8.76 6.29 16.46.44.88.51 1.56.06.68-.11 1.19-.18.5-.55.88-.38.37-.82.64l-4.84 2.94q-3.25-5.01-5.54-10.07-2.29-5.06-3.74-10.21-1.45-5.15-2.14-10.43-.68-5.28-.68-10.78 0-5.5.68-10.8.69-5.3 2.14-10.45 1.45-5.15 3.74-10.19 2.29-5.03 5.54-10.05l4.84 2.9q.44.27.82.64.37.38.55.88.17.51.11 1.19-.07.68-.51 1.61-4.09 7.65-6.29 16.43t-2.2 17.84Z"/></svg>